<svg width="31" height="24" viewBox="0 0 31 24" fill="none" xmlns="http://www.w3.org/2000/svg">
<path d="M2 24C1.575 24 1.21875 23.8563 0.93125 23.5688C0.64375 23.2813 0.5 22.925 0.5 22.5C0.5 22.25 0.55 22.0188 0.65 21.8063C0.75 21.5938 0.9 21.425 1.1 21.3L14 11.625V9C14 8.575 14.15 8.21875 14.45 7.93125C14.75 7.64375 15.1125 7.5 15.5375 7.5C16.1625 7.5 16.6875 7.275 17.1125 6.825C17.5375 6.375 17.75 5.8375 17.75 5.2125C17.75 4.5875 17.5313 4.0625 17.0938 3.6375C16.6563 3.2125 16.125 3 15.5 3C14.875 3 14.3438 3.21875 13.9063 3.65625C13.4688 4.09375 13.25 4.625 13.25 5.25H10.25C10.25 3.8 10.7625 2.5625 11.7875 1.5375C12.8125 0.5125 14.05 0 15.5 0C16.95 0 18.1875 0.50625 19.2125 1.51875C20.2375 2.53125 20.75 3.7625 20.75 5.2125C20.75 6.3875 20.4063 7.4375 19.7188 8.3625C19.0313 9.2875 18.125 9.925 17 10.275V11.625L29.9 21.3C30.1 21.425 30.25 21.5938 30.35 21.8063C30.45 22.0188 30.5 22.25 30.5 22.5C30.5 22.925 30.3563 23.2813 30.0688 23.5688C29.7813 23.8563 29.425 24 29 24H2ZM6.5 21H24.5L15.5 14.25L6.5 21Z" fill="#012A36"/>
</svg>
