<svg width="29" height="25" viewBox="0 0 29 25" fill="none" xmlns="http://www.w3.org/2000/svg">
<path d="M6.23728 11.5787L4.90183 12.3132C4.59022 12.4913 4.25636 12.5358 3.90024 12.4467C3.54412 12.3577 3.27703 12.1574 3.09897 11.8458L0.42806 7.17171C0.25 6.8601 0.205485 6.52624 0.294515 6.17012C0.383545 5.814 0.583863 5.54691 0.895469 5.36885L8.57432 0.961853H10.9114C11.1117 0.961853 11.2731 1.02306 11.3955 1.14548C11.5179 1.26789 11.5791 1.42926 11.5791 1.62958V2.29731C11.5791 3.03181 11.8406 3.66058 12.3637 4.18363C12.8867 4.70669 13.5155 4.96821 14.25 4.96821C14.9845 4.96821 15.6133 4.70669 16.1363 4.18363C16.6594 3.66058 16.9209 3.03181 16.9209 2.29731V1.62958C16.9209 1.42926 16.9821 1.26789 17.1045 1.14548C17.2269 1.02306 17.3883 0.961853 17.5886 0.961853H19.9257L27.6045 5.36885C27.9161 5.54691 28.1165 5.814 28.2055 6.17012C28.2945 6.52624 28.25 6.8601 28.0719 7.17171L25.401 11.8458C25.223 12.1574 24.9614 12.3522 24.6165 12.4301C24.2715 12.508 23.932 12.4579 23.5982 12.2798L22.2627 11.6121V23.6646C22.2627 24.0429 22.1347 24.3601 21.8788 24.6161C21.6228 24.872 21.3056 25 20.9273 25H7.57273C7.19436 25 6.87719 24.872 6.62122 24.6161C6.36526 24.3601 6.23728 24.0429 6.23728 23.6646V11.5787ZM8.90819 7.10494V22.3291H19.5918V7.10494L23.7317 9.37521L25.1339 7.03816L19.3915 3.69953C19.0576 4.83467 18.4289 5.77505 17.5052 6.52068C16.5815 7.2663 15.4964 7.63912 14.25 7.63912C13.0036 7.63912 11.9185 7.2663 10.9948 6.52068C10.0711 5.77505 9.44237 4.83467 9.10851 3.69953L3.36606 7.03816L4.76828 9.37521L8.90819 7.10494Z" fill="#012A36"/>
</svg>
